<mxfile host="app.diagrams.net" modified="2023-10-05T23:21:36.173Z" agent="Mozilla/5.0 (Windows NT 10.0; Win64; x64) AppleWebKit/537.36 (KHTML, like Gecko) Chrome/117.0.0.0 Safari/537.36" version="22.0.3" etag="IYvbXJ7ETDNSGaP1imSx" type="github">
  <diagram name="Page-1" id="EDKMkt_nO5-ErjoPhZsw">
    <mxGraphModel>
      <root>
        <mxCell id="0" />
        <mxCell id="1" parent="0" />
      </root>
    </mxGraphModel>
  </diagram>
</mxfile>
